<svg width="36" height="36" viewBox="0 0 36 36" fill="none" xmlns="http://www.w3.org/2000/svg">
<path d="M6.43938 16.0605L16.9394 5.56052C17.2207 5.27931 17.6021 5.12134 17.9999 5.12134C18.3976 5.12134 18.7791 5.27931 19.0604 5.56052L29.5604 16.0605C29.8417 16.3418 29.9998 16.7232 29.9999 17.121V31.5C29.9999 31.8978 29.8418 32.2794 29.5605 32.5607C29.2792 32.842 28.8977 33 28.4999 33H20.9999V22.5H14.9999V33H7.49988C7.10205 33 6.72052 32.842 6.43922 32.5607C6.15791 32.2794 5.99988 31.8978 5.99988 31.5V17.121C5.99996 16.7232 6.15805 16.3418 6.43938 16.0605Z" fill="#3063F2"/>
</svg>
