<svg width="36" height="36" viewBox="0 0 36 36" fill="none" xmlns="http://www.w3.org/2000/svg">
<path d="M32.6249 13.4719V13.4157C32.6189 13.3925 32.6142 13.3691 32.6109 13.3454V13.3032C32.5968 13.2751 32.5968 13.2469 32.5827 13.2188V13.1907L30.5718 6.13131C30.4332 5.66328 30.148 5.25213 29.7581 4.95845C29.3682 4.66477 28.8943 4.50408 28.4062 4.50006H7.59369C7.10558 4.50408 6.63168 4.66477 6.24179 4.95845C5.8519 5.25213 5.56665 5.66328 5.42806 6.13131L3.41713 13.1907V13.2188C3.40306 13.2469 3.40306 13.2751 3.389 13.3032V13.3454C3.38571 13.3691 3.38101 13.3925 3.37494 13.4157V15.7501C3.37494 16.6233 3.57826 17.4846 3.96879 18.2656C4.35932 19.0467 4.92634 19.7261 5.62494 20.2501V29.2501C5.62494 29.8468 5.86199 30.4191 6.28395 30.8411C6.70591 31.263 7.2782 31.5001 7.87494 31.5001H28.1249C28.7217 31.5001 29.294 31.263 29.7159 30.8411C30.1379 30.4191 30.3749 29.8468 30.3749 29.2501V20.2501C31.0735 19.7261 31.6406 19.0467 32.0311 18.2656C32.4216 17.4846 32.6249 16.6233 32.6249 15.7501V13.4719ZM5.62494 14.6251H12.3749V15.7501C12.3754 16.3305 12.2262 16.9013 11.9418 17.4072C11.6573 17.9132 11.2471 18.3372 10.7508 18.6383C10.2546 18.9395 9.68911 19.1075 9.10896 19.1263C8.52882 19.145 7.95364 19.0138 7.439 18.7454C7.36121 18.6837 7.27621 18.6318 7.18588 18.5907C6.70731 18.2872 6.31326 17.8676 6.04035 17.371C5.76745 16.8743 5.62455 16.3167 5.62494 15.7501V14.6251ZM21.3749 15.7501C21.3749 16.6452 21.0194 17.5036 20.3864 18.1365C19.7535 18.7695 18.895 19.1251 17.9999 19.1251C17.1048 19.1251 16.2464 18.7695 15.6135 18.1365C14.9805 17.5036 14.6249 16.6452 14.6249 15.7501V14.6251H21.3749V15.7501ZM28.814 18.5907C28.7237 18.6318 28.6387 18.6837 28.5609 18.7454C28.0462 19.0138 27.4711 19.145 26.8909 19.1263C26.3108 19.1075 25.7453 18.9395 25.249 18.6383C24.7528 18.3372 24.3426 17.9132 24.0581 17.4072C23.7736 16.9013 23.6244 16.3305 23.6249 15.7501V14.6251H30.3749V15.7501C30.3753 16.3167 30.2324 16.8743 29.9595 17.371C29.6866 17.8676 29.2926 18.2872 28.814 18.5907Z" fill="#969696"/>
</svg>
